<svg width="10" height="10" viewBox="0 0 10 10" fill="none" xmlns="http://www.w3.org/2000/svg">
<path d="M9.67751 7.995L6.60672 4.92859L9.67751 1.86217C10.1005 1.43916 10.1005 0.752553 9.67861 0.328392C9.2545 -0.0968076 8.56789 -0.0957141 8.14379 0.327298L5.07086 3.3959L1.99794 0.327298C1.57383 -0.0957141 0.887225 -0.0968076 0.463119 0.328392C0.0401067 0.752498 0.0401061 1.43911 0.464212 1.86217L3.535 4.92859L0.464212 7.995C0.0401061 8.41801 0.0401067 9.10462 0.463119 9.52878C0.674653 9.74135 0.953398 9.84658 1.2311 9.84658C1.50881 9.84658 1.78646 9.74026 1.99799 9.52982L5.07092 6.46122L8.14384 9.52982C8.35537 9.74136 8.63303 9.84658 8.91073 9.84658C9.18844 9.84658 9.46718 9.74026 9.67872 9.52878C10.1016 9.10462 10.1016 8.41801 9.67751 7.995Z" fill="#585858"/>
</svg>
