<svg width="218" height="63" viewBox="0 0 218 63" fill="none" xmlns="http://www.w3.org/2000/svg">
<rect width="218" height="63" fill="#2DA24A"/>
<path d="M109.5 57C123.561 57 135 45.5611 135 31.5C135 17.4389 123.561 6 109.5 6C95.4389 6 84 17.4389 84 31.5C84 45.5611 95.4389 57 109.5 57ZM109.5 9.1875C121.804 9.1875 131.812 19.1962 131.812 31.5C131.812 43.8037 121.804 53.8125 109.5 53.8125C97.1962 53.8125 87.1875 43.8037 87.1875 31.5C87.1875 19.1962 97.1962 9.1875 109.5 9.1875Z" fill="white"/>
<path d="M100.779 36.0794L104.111 34.6323L103.176 35.5694C102.876 35.869 102.708 36.2749 102.708 36.6956V42.9325C102.708 44.3605 104.434 45.0533 105.428 44.0588L108.773 40.714L116.062 44.3584C117.005 44.8301 118.147 44.2713 118.342 43.2173L122.501 20.3501C122.72 19.1198 121.508 18.1253 120.35 18.58L93.3287 29.1561C92.1174 29.6279 91.9559 31.2854 93.0524 31.9845L99.2872 35.9625C99.7334 36.2473 100.297 36.2919 100.779 36.0794ZM118.854 22.592L115.588 40.5589L109.171 37.3523C108.55 37.042 107.811 37.1716 107.332 37.6519L105.896 39.0884V37.3608L112.286 30.9709C113.525 29.732 112.131 27.6878 110.524 28.3826L100.288 32.8239L97.4108 30.9879L118.854 22.592Z" fill="white"/>
</svg>
