<svg width="218" height="63" viewBox="0 0 218 63" fill="none" xmlns="http://www.w3.org/2000/svg">
<rect width="218" height="63" fill="#2DA24A"/>
<path d="M96.3111 48.4453C96.2466 51.4976 95.8861 54.9854 98.5426 55.8271C101.147 56.6751 102.657 54.5812 106.054 50.3309C118.717 51.1955 129.895 47.6348 131.391 34.8693C132.731 23.5205 130.999 15.0303 126.543 10.9904C120.007 4.72741 98.7322 3.85026 90.9441 11.2946C87.7376 14.6302 86.175 19.5244 86.0291 26.6978C85.9104 32.5566 85.6687 44.5367 96.3111 48.4453ZM89.1543 26.7624C89.2835 20.4223 90.567 16.1949 93.1484 13.5072C99.651 7.29427 118.921 8.01307 124.411 13.2801C128.076 16.5991 129.491 24.3351 128.289 34.5047C127.197 43.8304 121.192 45.4222 118.932 46.0201C114.25 47.2556 109.787 47.5244 105.506 47.1535C104.378 47.0327 103.935 48.0994 103.524 48.487C101.484 50.9392 100.014 52.7102 99.6322 52.9477C99.351 52.5289 99.3947 50.5475 99.428 48.9558C99.3259 48.239 99.9677 46.2576 98.2946 45.8097C88.8252 43.0136 89.0398 32.4441 89.1543 26.7624Z" fill="white"/>
<path d="M95.1314 22.6143C96.8002 25.9416 98.4274 31.8212 104.676 36.9383C106.845 38.7259 113.337 42.8512 115.879 42.8512C119.51 42.8512 123.659 37.1383 120.621 34.5902C119.254 33.2546 117.331 31.94 116.098 31.217C116.095 31.2149 116.093 31.2149 116.093 31.2149C112.891 29.3627 111.137 32.7713 110.928 32.9046C106.236 37.1049 100.457 29.8085 104.507 26.2791C105.005 25.6603 107.976 24.2269 106.213 20.9683C104.651 18.141 103.62 17.168 103.036 16.3617C99.9588 12.5197 93.3 18.9015 95.1314 22.6143ZM114.245 33.8088C114.458 33.9422 116.31 34.7527 118.521 36.9049C118.802 37.1404 116.927 39.8656 115.733 39.7093C115.497 39.603 113.795 39.1968 110.139 36.9612C113.61 35.7819 113.581 33.9339 114.245 33.8088ZM100.357 18.3389C100.486 18.2702 100.553 18.266 100.546 18.2493C101.146 19.0848 102.042 19.8807 103.472 22.4663C103.851 23.1685 102.915 23.4414 102.311 24.0581C101.451 24.8207 100.819 25.7291 100.432 26.7312C99.1525 24.3165 98.5795 22.5767 97.9962 21.36C97.7628 20.2516 99.365 18.9056 100.357 18.3389Z" fill="white"/>
<path d="M109.82 23.8017C109.843 23.8037 112.11 24.0933 112.516 26.5331C112.86 28.6041 115.935 28.0478 115.598 26.0206C114.966 22.2307 111.777 20.8806 110.174 20.6973C108.122 20.466 107.77 23.5641 109.82 23.8017Z" fill="white"/>
<path d="M108.193 17.0637C108.229 17.0637 113.148 16.9762 116.35 20.4015C119.513 23.7851 118.815 28.7042 118.809 28.7479C118.49 30.7752 121.569 31.3127 121.894 29.2334C121.936 28.9729 122.855 22.7829 118.634 18.2659C114.444 13.7822 108.35 13.9218 108.097 13.9385C105.962 14.0093 106.22 17.2262 108.193 17.0637Z" fill="white"/>
</svg>
