<?xml version="1.0" encoding="UTF-8"?>
<!DOCTYPE svg PUBLIC "-//W3C//DTD SVG 1.1//EN" "http://www.w3.org/Graphics/SVG/1.1/DTD/svg11.dtd">
<!-- Creator: CorelDRAW 2020 (64-Bit) -->
<svg xmlns="http://www.w3.org/2000/svg" xml:space="preserve" width="100%" height="100%" version="1.1" style="shape-rendering:geometricPrecision; text-rendering:geometricPrecision; image-rendering:optimizeQuality; fill-rule:evenodd; clip-rule:evenodd"
viewBox="0 0 12992.4 4463"
 xmlns:xlink="http://www.w3.org/1999/xlink"
 xmlns:xodm="http://www.corel.com/coreldraw/odm/2003">
 <defs>
  <style type="text/css">
   <![CDATA[
    .fil1 {fill:#071663}
    .fil0 {fill:#33408F}
    .fil2 {fill:#071663;fill-rule:nonzero}
   ]]>
  </style>
 </defs>
 <g id="Слой_x0020_1">
  <metadata id="CorelCorpID_0Corel-Layer"/>
  <g id="_1975130339760">
   <path class="fil0" d="M794.23 2200.25c-44.83,71.57 -121.24,125.29 -172.82,205.67 -49.74,77.54 -97.89,177.58 -109.41,287.39 -42.17,402.24 278.81,700.7 542.23,1005.84l314.29 376.8c53.51,60.91 -2.93,22.9 66.9,46.8 7.53,-13.3 11.28,-17.19 17.76,-46.98 4.95,-22.84 4.87,-26.35 6.21,-49.41l0.53 -839.66c-0.16,-253.87 34.54,-657.35 -286.51,-540.67 34.85,63.18 136.67,117.61 78.95,242.22 -80.38,173.59 -394.28,144.15 -385.07,-142.67 6.61,-205.99 276.12,-481.84 663.62,-180.75l414.53 327.23c243.19,-97.61 537.83,-646.77 922.83,-397.47 212.93,137.89 167.19,404.04 45.28,475.14 -99.94,58.27 -222.12,9.02 -267.23,-55.88 -93.59,-134.68 26.1,-201.03 59.89,-270.75 -178.76,-52.07 -286.17,61.74 -285.68,247.46l5.34 1264.36c65.67,-33.68 296.21,-338.23 366.22,-417.48 260.53,-294.83 605.71,-625.2 580.72,-1011.5 -16.63,-257.25 -169.38,-397.79 -285.5,-514.17 309.51,-286.62 418.61,-664.45 102.01,-1057.64 -46.48,-57.71 -683.4,-787.56 -750.32,-819.87 -25.71,60.66 -28.52,1229.14 -1.84,1308.04 32.45,95.98 134.69,212.37 264.37,129.51 -24.47,-57.15 -135.34,-119.32 -66.47,-247.42 33.76,-62.8 136.56,-127.61 250.58,-84.31 334.91,127.22 -9.34,843.83 -522.09,423.58 -93.59,-76.7 -306.36,-274.56 -401.65,-324.86 -273.65,106.54 -577.22,646.19 -968.35,378.37 -144.44,-98.92 -192.05,-391.02 -1.87,-474.27 101.12,-44.26 207.63,2.57 252.78,75.95 74.31,120.8 -28.59,195.95 -71.65,253.55 115.95,58.88 221.44,-0.73 265.8,-112.37 38.51,-96.9 21.46,-318.22 21.11,-431.14 -0.9,-297.68 6.56,-613.42 -6.33,-908.92l-741.02 811.27c-304.09,381.13 -260.84,834.65 81.86,1069.01zm935.4 63.02c188.02,243.26 73.4,63.86 213.02,342.24 79.95,-163.1 90.25,-222.31 215.61,-338 -45.74,-105.07 -103.46,-102.71 -214.28,-398.14 -31.75,60.53 -53.45,129.52 -91.94,200.61 -38.38,70.94 -102.09,138.11 -122.41,193.29z"/>
   <path class="fil1" d="M2641.1 4464.89l747.85 1.8 0.68 -884.98c-738.2,870.97 0,0 -748.53,883.18z"/>
   <path class="fil0" d="M3356.22 2216.01c59.85,53.81 167.15,267.02 200.03,386.95 77.73,-43.8 129.86,-132.16 167.41,-232.31 34.97,-72.77 81.49,-84.92 156.34,-168.2 -69.04,-51.51 -124.9,-40.46 -169.38,-128.68 -44.25,-107.41 -28.2,-118.47 -126.7,-226.71 -17.8,106.31 -149.06,313.57 -227.7,368.95z"/>
   <path class="fil0" d="M517.57 2201.61c-59.85,53.81 -167.16,267.01 -200.03,386.94 -77.73,-43.8 -129.87,-132.15 -167.41,-232.3 -34.98,-72.78 -81.5,-84.92 -156.35,-168.2 69.04,-51.52 124.91,-40.46 169.39,-128.68 44.25,-107.42 28.19,-118.48 126.69,-226.71 17.8,106.31 149.07,313.57 227.71,368.95z"/>
   <path class="fil1" d="M1242.74 4464.89l-747.85 1.8 -0.68 -884.98c738.19,870.97 0,0 748.53,883.18z"/>
   <path class="fil1" d="M1242.74 5.51l-747.85 -1.81 -0.68 884.98c738.19,-870.97 0,0 748.53,-883.17z"/>
   <path class="fil1" d="M2641.1 5.51l747.85 -1.81 0.68 884.98c-738.2,-870.97 0,0 -748.53,-883.17z"/>
   <path class="fil2" d="M5029.94 1320.03c52.15,-35.13 93.05,-68.34 122.97,-99.63 30.19,-31.56 77.12,-81.79 141.35,-150.96 63.95,-68.89 102.37,-115 115.27,-138.33 12.63,-23.06 18.94,-39.8 18.94,-49.95 0,-12.63 -7.13,-23.88 -21.41,-33.76 -13.99,-10.16 -30.74,-16.75 -50.22,-20.04 -21.41,-3.02 -32.12,-9.06 -32.12,-18.11 0,-9.34 8.79,-14 26.63,-14 3.56,0 9.6,-0.28 17.56,-0.83 19.76,-1.09 79.32,-1.64 178.41,-1.64 68.07,0 115.55,0.55 142.45,1.92 26.62,1.37 40.07,6.59 40.07,15.37 0,9.33 -7.41,15.09 -22.51,17.29 -49.95,6.86 -93.32,20.59 -129.82,40.62 -36.78,20.04 -93.87,67.52 -171,141.63 -77.4,74.38 -143.82,146.56 -199.53,216.28 62.03,0 114.45,8.78 156.72,26.07 42.27,17.57 77.4,47.49 105.67,90.3 27.99,42.55 52.42,114.73 72.73,216.83 35.41,171 98.81,260.47 190.21,267.88 20.31,1.65 30.46,7.14 30.46,16.47 0,7.69 -4.94,11.53 -14.54,11.53l-73.83 -1.37c-109.24,0 -172.1,0.82 -188.02,3.02 -26.07,-34.86 -43.09,-69.17 -50.77,-102.93 -7.96,-33.76 -18.39,-93.04 -31.84,-177.58 -11.8,-74.11 -31.29,-142.45 -58.19,-205.03 -27.17,-62.85 -69.44,-94.14 -126.8,-94.14 -38.15,0 -77.4,12.35 -118.3,37.33 -40.62,24.97 -64.22,43.36 -70.81,55.44 -6.31,12.08 -9.61,83.16 -9.61,212.71 0,91.13 2.75,147.39 8.51,168.8 5.49,21.68 17.57,38.43 36.51,50.78 18.93,12.35 44.19,20.03 76.02,23.33 19.22,2.19 28.82,7.96 28.82,17.56 0,9.06 -6.58,13.73 -20.03,13.73l-9.61 -0.55c-15.1,-0.83 -69.71,-1.1 -163.86,-1.1 -113.63,0 -177.85,1.1 -192.67,3.29 -7.69,1.1 -13.18,1.65 -17.02,1.65 -12.35,0 -18.39,-4.94 -18.39,-14.82 0,-8.78 7.41,-14.27 22.51,-16.47 28.54,-3.84 49.67,-11.8 63.95,-23.6 14.27,-12.08 23.33,-26.08 27.44,-42 3.85,-15.64 9.34,-68.61 15.92,-158.64 6.86,-90.3 10.16,-165.23 10.16,-225.34 0,-79.32 -0.82,-146.56 -2.47,-201.73 -1.65,-55.17 -4.67,-115.55 -9.61,-180.6 -4.66,-65.05 -10.15,-104.3 -15.92,-117.47 -6.04,-13.18 -14.27,-23.33 -24.97,-30.47 -10.71,-7.14 -35.68,-13.18 -75.21,-18.12 -13.45,-1.64 -20.03,-6.31 -20.03,-14.54 0,-11.8 12.35,-17.57 36.77,-17.57l65.05 -0.82 284.9 -3.3c14.55,0 21.68,4.4 21.68,13.45 0,5.22 -2.47,9.06 -7.13,11.26 -4.94,2.47 -19.49,5.21 -44.19,8.23 -24.98,3.29 -40.9,6.31 -47.21,9.33 -6.31,3.02 -12.9,9.88 -19.21,20.86 -6.59,10.98 -9.61,29.1 -9.61,54.35 0,60.93 3.02,196.79 8.78,408.13zm1647.08 -16.47l7.14 -223.41c0,-98.26 -9.61,-162.49 -29.37,-193.5 -19.49,-30.74 -52.42,-46.11 -98.81,-46.11 -26.89,0 -40.34,-5.77 -40.34,-17.3 0,-10.43 7.96,-15.64 24.15,-15.64l234.4 8.23 198.99 -3.29c15.64,0 23.32,4.94 23.32,14.82 0,8.78 -4.94,13.18 -15.09,13.18 -40.62,0 -72.19,5.76 -94.69,17.56 -22.51,11.8 -37.33,31.84 -44.47,60.11 -7.13,28.54 -13.17,109.24 -17.56,242.63 -4.67,133.67 -6.86,230.55 -6.86,290.94l-2.47 197.34c0,61.48 5.76,101.28 17.56,119.94 11.8,18.39 29.37,32.66 52.7,43.09 23.33,10.43 47.48,17.02 71.91,19.76 17.29,2.2 25.8,7.14 25.8,14.83 0,9.88 -7.14,14.54 -21.68,14.54l-247.02 -6.31 -161.12 4.94c-18.66,0 -27.99,-4.94 -27.99,-14.82 0,-8.23 6.58,-12.63 19.76,-13.18 42.27,-2.74 69.99,-8.23 82.89,-16.74 12.9,-8.78 23.33,-24.97 31.29,-49.13 7.96,-24.15 12.62,-64.77 13.72,-121.86l3.84 -291.49c-46.11,-3.29 -93.04,-4.94 -140.52,-4.94 -207.5,0 -338.97,3.85 -394.69,11.26 -4.39,103.2 -6.31,188.01 -6.31,254.7 0,74.38 1.37,120.49 4.66,137.51 3.3,17.29 13.18,33.21 30.2,48.03 16.74,14.82 39.79,24.98 69.44,31.02 18.11,3.84 27.17,9.88 27.17,18.11 0,9.88 -5.77,14.82 -17.57,14.82 -3.84,0 -9.06,-0.82 -16.19,-1.92 -28.82,-4.39 -88.65,-6.31 -179.5,-6.31 -98.81,0 -159.47,2.47 -181.98,7.41 -4.94,0.55 -9.6,0.82 -14.54,0.82 -12.35,0 -18.39,-4.11 -18.39,-12.35 0,-9.33 8.23,-15.09 24.97,-17.29 41.17,-4.94 70.54,-16.19 88.11,-34.58 17.84,-18.12 29.92,-86.46 36.5,-204.75 6.86,-118.03 10.16,-261.85 10.16,-430.92 0,-137.51 -6.31,-224.24 -19.21,-260.2 -12.9,-35.68 -44.19,-55.44 -94.15,-59.28 -11.25,-1.1 -16.74,-5.49 -16.74,-13.18 0,-10.97 11.53,-16.46 34.58,-16.46l323.88 -4.94c23.05,0 37.05,0.54 41.44,1.92 4.67,1.37 6.86,5.49 6.86,12.9 0,8.23 -7.13,13.17 -21.13,14.82 -53.25,5.49 -85.64,15.09 -97.16,29.09 -11.81,13.73 -17.57,100.73 -17.57,260.75 0,16.46 0.82,74.65 2.47,174.56 54.62,4.39 118.85,6.59 192.95,6.59 95.24,0 209.42,-2.2 342.26,-6.32zm436.95 18.39c0,-72.46 21.96,-152.05 65.88,-238.51 43.91,-86.73 108.14,-158.09 192.67,-214.36 84.26,-56.27 179.5,-84.54 285.72,-84.54 148.49,0 271.18,52.98 367.79,159.2 96.89,106.21 145.19,227.53 145.19,363.67 0,144.91 -53.52,274.74 -160.83,389.74 -107.05,115 -236.05,172.64 -386.73,172.64 -144.1,0 -265.14,-50.5 -362.85,-151.23 -97.98,-100.73 -146.84,-233.02 -146.84,-396.61zm177.86 -26.35c0,87.83 13.45,177.58 40.35,269.81 26.89,92.22 69.16,159.19 126.53,200.63 57.63,41.72 119.11,62.58 184.71,62.58 105.95,0 190.76,-51.6 254.43,-154.52 63.68,-102.93 95.52,-222.05 95.52,-357.36 0,-131.2 -32.39,-246.47 -97.44,-345.56 -65.05,-99.08 -150.13,-148.76 -254.98,-148.76 -79.04,0 -144.92,26.35 -197.62,79.32 -52.69,52.97 -91.12,116.38 -115.27,189.93 -24.16,73.56 -36.23,141.63 -36.23,203.93zm1619.91 20.04c74.65,32.11 126.53,65.87 155.89,101 29.1,35.14 50.51,89.48 63.96,162.76 17.56,96.34 42.26,161.39 74.38,194.6 32.11,33.21 74.1,50.78 125.98,52.97 14.54,1.1 21.68,6.32 21.68,15.65 0,9.33 -8.23,14 -24.98,14 -149.86,0 -240.71,-4.94 -272.54,-14.82 -32.12,-9.89 -55.72,-64.78 -71.37,-164.41 -14.27,-96.89 -29.36,-167.7 -45.28,-212.44 -15.92,-44.74 -41.17,-79.05 -75.76,-102.93 -34.58,-23.87 -88.65,-35.68 -161.93,-35.68 -28,0 -59.56,3.02 -94.97,8.79 -2.74,33.76 -4.12,68.89 -4.12,105.39 0,137.51 1.93,226.71 5.49,267.06 3.85,40.35 15.37,69.99 34.31,88.38 18.94,18.66 50.78,28.27 95.24,29.37 19.49,0.55 29.1,5.21 29.1,14 0,10.43 -11.81,15.64 -35.41,15.64l-397.16 0c-23.05,0 -34.58,-5.21 -34.58,-15.64 0,-9.34 9.06,-14 27.17,-14 40.9,0 69.17,-6.04 84.81,-18.39 15.92,-12.35 28.27,-31.57 37.33,-57.64 9.06,-25.8 13.73,-73.01 13.73,-141.08l-1.65 -163.85 0.82 -249.77c0,-127.63 -2.74,-211.89 -8.51,-253.34 -5.49,-41.17 -15.64,-68.89 -29.91,-83.16 -14.55,-14 -48.04,-25.25 -100.46,-33.21 -11.25,-1.65 -16.74,-6.31 -16.74,-14 0,-8.78 11.25,-13.17 33.76,-13.17l475.93 -9.88c131.19,0 226.71,25.25 285.72,75.48 59.28,50.5 88.93,111.98 88.93,184.71 0,46.11 -12.08,88.11 -35.96,126.26 -23.88,37.88 -52.15,65.6 -84.81,82.61 -32.94,17.3 -85.63,36.78 -158.09,58.74zm-303.57 -20.59c102.66,-2.19 179.78,-9.33 230.83,-21.68 51.33,-12.35 94.97,-39.52 131.2,-81.24 35.95,-41.72 54.07,-91.4 54.07,-148.76 0,-60.66 -20.04,-113.36 -60.11,-158.37 -40.07,-45.01 -104.3,-67.52 -192.4,-67.52 -48.03,0 -101.28,6.31 -159.47,19.21 -6.31,147.39 -9.61,264.86 -9.61,352.15 0,30.19 1.93,65.59 5.49,106.21zm1669.86 -483.33c15.65,60.1 30.74,144.37 45.84,253.06 -2.47,4.11 -5.49,6.31 -8.51,6.31 -3.57,0 -7.68,-2.2 -11.8,-6.59 -37.05,-59.56 -72.46,-104.85 -106.22,-136.14 -33.76,-31.01 -67.79,-53.24 -101.83,-66.42 -34.03,-13.17 -92.49,-19.76 -175.66,-19.76 -78.49,0 -140.25,4.67 -185.81,13.73 -4.39,5.21 -6.59,15.09 -6.59,29.64 0,3.84 -0.55,10.43 -1.65,20.03 -5.21,43.1 -7.96,159.47 -7.96,349.13 0,7.96 0.55,19.21 1.65,33.76 40.9,1.64 68.62,2.47 83.71,2.47 67.8,0 116.65,-10.16 147.12,-30.19 30.19,-20.04 56.81,-63.41 79.32,-129.83 3.57,-11.25 8.51,-17.01 14.82,-17.01 9.61,0 14.27,7.68 14.27,23.33l-2.74 32.11c-3.57,42.27 -5.49,85.91 -5.49,130.65 0,72.73 1.1,138.33 3.29,196.79 0,18.11 -4.94,27.17 -14.54,27.17 -7.14,0 -12.08,-6.31 -14.55,-19.21 -11.25,-63.13 -34.86,-108.69 -70.81,-136.69 -35.68,-27.72 -113.63,-41.72 -233.58,-41.72 -1.64,39.25 -2.47,102.38 -2.47,189.94 0,113.35 4.12,185.26 12.08,215.73 7.96,30.74 27.17,54.89 57.91,73.01 30.47,17.84 82.07,26.89 155.08,26.89 208.32,0 342.81,-71.91 403.19,-215.45 7.41,-17.84 14.82,-26.63 22.78,-26.63 8.51,0 12.63,5.77 12.63,17.57 0,6.59 -1.37,13.45 -4.12,21.13 -3.02,10.16 -10.98,48.04 -23.33,114.18 -2.47,14 -12.9,55.72 -30.46,125.43l-337.33 -0.82c-48.3,0 -119.39,-2.19 -212.98,-6.31 -93.6,-4.12 -176.49,-6.04 -248.67,-6.31 -72.19,-0.28 -110.06,-1.93 -113.08,-4.4 -3.3,-2.74 -4.94,-5.76 -4.94,-9.05 0,-10.71 8.78,-15.92 26.62,-15.92 59.84,0 99.08,-15.92 118.02,-47.49 18.94,-31.56 28.27,-108.41 28.27,-230.55l-0.82 -164.68 2.47 -154.25c0,-31.02 -1.92,-89.75 -5.22,-176.48 -3.56,-86.46 -6.86,-135.87 -9.6,-148.22 -3.02,-12.35 -11.53,-24.42 -24.98,-36.5 -13.72,-12.08 -43.91,-24.15 -90.85,-36.51 -14,-3.84 -20.86,-9.88 -20.86,-18.11 0,-9.88 9.33,-14.82 28.27,-14.82l164.14 9.06c57.91,2.74 200.36,4.11 427.34,4.11 149.31,0 225.34,0.28 228.63,0.83zm1072.9 1040.78l-33.75 2.47c-489.38,0 -741.07,0 -754.79,0 -20.04,0 -31.84,-0.55 -35.96,-1.92 -4.12,-1.1 -6.04,-4.67 -6.04,-10.16 1.65,-5.76 15.1,-30.19 40.35,-73.01 25.25,-42.54 75.75,-120.21 152.06,-233.02l209.14 -310.15c63.95,-94.14 107.59,-156.99 131.2,-189.38 69.71,-94.14 111.71,-158.64 125.7,-193.78 -94.96,-4.11 -169.07,-6.31 -222.04,-6.31 -80.42,0 -139.98,6.04 -178.68,17.84 -38.43,12.08 -70.81,29.64 -96.89,53.25 -26.07,23.33 -57.64,62.03 -95.24,116.37 -18.39,26.63 -30.46,39.8 -36.23,39.8 -8.51,0 -12.9,-4.94 -12.9,-14.55 0,-2.47 11.8,-41.71 35.13,-117.47 23.33,-75.48 37.33,-118.57 42,-129 4.94,-10.43 9.6,-15.64 13.72,-15.64l119.94 8.23c42.82,2.2 130.38,3.29 262.4,3.29 182.79,0 298.89,-3.01 348.3,-9.05 5.21,-0.55 9.33,-0.83 12.07,-0.83 6.31,0 9.61,3.57 9.61,10.43 0,16.2 -98.81,165.23 -296.43,447.66 -179.5,256.63 -302.46,445.19 -369.43,566.5 76.85,3.02 142.72,4.67 197.34,4.67 75.48,0 134.76,-3.57 177.86,-10.7 43.09,-7.41 82.06,-19.22 116.65,-35.96 34.58,-17.02 60.1,-32.39 77.12,-46.93 16.74,-14.28 43.64,-44.47 80.69,-90.3 33.76,-40.9 53.53,-61.48 59.29,-61.48 8.51,0 12.9,6.03 12.9,18.38l-85.09 260.75zm519.02 -1049.84c54.35,117.47 104.85,221.22 151.78,311.25 56.54,107.86 100.46,197.34 132.02,268.7 31.57,71.36 68.34,141.9 110.34,211.34 110.88,-183.89 239.61,-447.66 385.9,-791.29l319.48 0.82c11.25,1.65 16.74,6.59 16.74,14.82 0,8.24 -6.31,12.9 -19.21,14 -56.81,4.94 -94.69,16.19 -113.63,34.04 -18.94,18.11 -30.74,48.3 -35.13,90.57 -4.67,42.27 -9.06,121.31 -13.45,236.32 -4.12,115.27 -6.31,211.34 -6.31,287.91 0,147.39 1.1,233.3 3.29,257.73 2.2,24.43 11.25,43.91 27.17,58.46 16.2,14.27 47.76,24.98 94.42,31.29 13.45,2.2 20.04,7.14 20.04,15.1 0,7.96 -8.24,12.07 -24.98,12.07l-312.07 -0.82 -82.07 0c-18.11,0 -27.17,-4.39 -27.17,-12.9 0,-7.41 6.04,-11.8 18.39,-13.45 45.01,-6.04 74.66,-14.27 89.48,-24.98 14.54,-10.7 25.52,-29.91 32.93,-57.63 7.14,-27.45 10.71,-96.34 10.71,-206.4l15.09 -386.18 7.96 -190.76c0,-14.54 -2.19,-21.68 -6.31,-21.68 -6.59,0 -11.8,4.39 -16.19,12.9l-159.19 314.54c-101.83,200.91 -164.41,329.64 -187.47,385.9l-49.95 121.59c-15.37,37.06 -24.98,57.09 -28,60.66 -3.29,3.57 -7.13,5.22 -11.25,5.22 -6.59,0 -12.08,-6.87 -16.19,-20.86 -9.88,-33.21 -59.56,-138.89 -149.59,-317.01 -46.66,-100.19 -102.92,-214.64 -168.25,-343.36 -65.59,-128.73 -101,-195.98 -106.22,-201.46 -5.49,-5.77 -9.6,-8.51 -12.35,-8.51 -5.21,0 -7.96,6.86 -7.96,20.03l-9.05 487.18 -2.47 160.84c0,85.36 11.52,141.08 34.85,167.15 23.33,26.35 56.54,39.53 99.64,39.53 27.72,0 41.71,5.76 41.71,17.56 0,8.51 -6.58,12.9 -20.03,12.9l-16.74 -0.82 -52.15 0.82 -113.08 -0.82c-49.41,0 -112.54,2.74 -190.21,8.23 -6.31,-4.39 -9.61,-8.5 -9.61,-12.9 0,-10.7 9.33,-16.19 28.27,-16.74 53.52,-1.65 93.05,-19.49 118.3,-53.25 25.25,-33.75 37.88,-109.51 37.88,-227.26l0 -141.9 9.88 -359.82c0,-83.72 -12.35,-141.08 -37.06,-172.09 -24.7,-30.75 -60.93,-49.13 -108.69,-55.17 -20.31,-2.75 -30.46,-7.96 -30.46,-16.47 0,-9.33 7.41,-14 22.5,-14 7.96,0 17.84,0.28 29.1,0.82l284.62 8.24zm-6554.56 1875.71c14.55,-14.54 24.15,-29.91 29.09,-45.56 4.4,-12.9 10.43,-19.49 18.39,-19.49 4.4,0 9.34,2.75 14.55,7.96 3.57,19.49 8.78,58.47 15.65,117.2l18.93 151.78c0,9.61 -5.76,14.55 -17.56,14.55 -6.59,0 -12.08,-5.49 -17.02,-16.19 -28.54,-69.99 -70.81,-128.46 -126.8,-174.84 -55.99,-46.11 -117.2,-69.17 -183.35,-69.17 -65.05,0 -114.18,19.49 -147.39,58.47 -33.21,38.97 -49.68,80.41 -49.68,124.33 0,53.52 18.12,94.42 54.07,122.69 35.96,28.27 110.07,60.38 222.32,96.34 82.62,25.8 144.65,50.77 185.82,74.93 40.89,23.87 75.48,57.63 103.47,101.27 28,43.37 42,90.03 42,139.71 0,84.81 -35.14,160.56 -105.12,227.53 -69.99,66.97 -155.63,100.46 -257.18,100.46 -91.67,0 -183.62,-28.55 -275.84,-85.91 -18.39,15.1 -29.92,32.94 -35.41,53.52 -4.39,17.29 -11.53,25.8 -21.41,25.8 -8.78,0 -15.09,-10.98 -18.94,-32.94 -3.84,-22.23 -11.8,-126.53 -23.87,-313.16 2.19,-6.32 7.68,-9.61 17.01,-9.61 7.96,0 14.27,6.04 19.22,17.84 82.34,207.77 197.61,311.52 345.28,311.52 73.28,0 130.64,-22.23 172.09,-66.42 41.44,-44.19 62.3,-94.97 62.3,-152.33 0,-39.52 -11.25,-76.03 -33.48,-109.24 -22.23,-33.21 -51.88,-60.11 -88.66,-80.42 -36.77,-20.31 -94.96,-43.09 -174.28,-68.34 -102.11,-32.66 -171.27,-63.68 -207.5,-92.77 -36.51,-29.09 -63.13,-62.03 -79.87,-98.81 -17.02,-36.78 -25.53,-72.18 -25.53,-106.49 0,-71.36 32.39,-134.49 97.16,-189.66 64.78,-55.17 144.1,-82.89 237.97,-82.89 35.41,0 72.73,5.49 111.71,16.74 38.7,11.26 79.59,28.55 121.86,51.6zm331.01 -65.05l146.29 3.3 224.52 -3.3c26.9,0 40.35,5.49 40.35,16.2 0,7.96 -7.14,12.9 -21.69,15.09 -59.28,7.41 -96.34,29.1 -111.16,64.23 -14.54,35.41 -21.95,166.05 -21.95,392.21 0,82.89 2.19,176.49 6.31,280.51 4.39,103.75 9.33,166.05 14.55,186.37 5.21,20.31 15.37,36.77 30.46,49.67 15.1,12.9 42.82,21.96 83.44,27.45 13.45,1.65 20.04,6.86 20.04,15.65 0,9.88 -6.04,14.82 -18.39,14.82l-200.09 -1.65 -169.9 1.65c-18.94,0 -28.27,-5.49 -28.27,-16.2 0,-11.25 7.41,-16.74 22.51,-16.74 50.23,-1.1 79.59,-17.57 88.1,-49.95 8.51,-32.12 12.9,-134.49 12.9,-307.68 0,-167.15 -1.37,-302.19 -4.39,-405.67 -3.02,-103.47 -11.8,-166.6 -26.07,-189.65 -14.55,-23.06 -42,-37.61 -82.07,-43.37 -15.09,-2.74 -22.51,-8.78 -22.51,-18.39 0,-9.61 5.77,-14.55 17.02,-14.55zm1451.94 1064.12c-26.35,0.82 -41.45,1.37 -45.02,1.37 -20.03,0 -55.99,-0.82 -108.14,-2.47 -52.15,-1.65 -160.29,-2.47 -324.69,-2.47l-204.76 0c-7.68,0 -34.85,1.37 -82.34,4.12 -47.21,2.74 -76.03,4.11 -86.18,4.11 -40.9,0 -61.21,-5.21 -61.21,-15.92 0,-8.78 7.96,-13.17 24.16,-13.72 52.15,-3.29 88.38,-14.27 108.69,-33.48 20.58,-18.94 34.3,-46.39 41.99,-82.07 7.41,-35.41 11.25,-132.02 11.25,-289.01l0.83 -287.92c0,-93.32 -4.12,-158.37 -12.36,-195.42 -8.23,-37.06 -25.52,-65.33 -51.32,-84.81 -25.8,-19.77 -55.17,-30.74 -87.83,-33.49 -17.02,-1.65 -25.53,-7.68 -25.53,-18.11 0,-10.43 7.69,-15.65 23.33,-15.65 3.57,0 10.71,0.28 20.86,0.82 85.09,5.49 184.45,8.24 298.35,8.24l141.35 -1.65c14.55,0 21.68,5.49 21.68,16.47 0,9.88 -7.68,14.82 -23.33,14.82 -37.87,0 -69.44,7.41 -94.96,22.51 -25.25,14.82 -42.27,32.11 -50.5,51.6 -8.24,19.76 -12.35,57.91 -12.35,114.45l-6.59 380.14 1.64 212.16c0,65.88 2.75,108.69 8.51,128.45 5.49,19.77 17.3,37.61 35.14,53.53 17.56,15.64 49.95,23.6 96.61,23.6 3.84,0 51.87,-1.65 144.37,-4.94 73.56,-10.16 139.7,-46.11 198.44,-107.87 58.46,-61.75 97.44,-117.19 116.92,-166.05 5.77,-14 12.63,-20.86 20.86,-20.86 8.79,0 13.18,6.31 13.18,19.21 0,15.1 -7.69,68.9 -22.78,161.39 -15.1,92.5 -24.71,145.47 -28.27,158.92zm419.38 -538.51c52.15,-35.13 93.05,-68.34 122.97,-99.63 30.19,-31.56 77.12,-81.79 141.35,-150.96 63.95,-68.89 102.37,-115 115.27,-138.33 12.63,-23.06 18.94,-39.8 18.94,-49.95 0,-12.63 -7.13,-23.88 -21.41,-33.76 -13.99,-10.16 -30.74,-16.75 -50.22,-20.04 -21.41,-3.02 -32.12,-9.06 -32.12,-18.11 0,-9.34 8.79,-14 26.63,-14 3.56,0 9.6,-0.28 17.56,-0.83 19.76,-1.09 79.32,-1.64 178.41,-1.64 68.07,0 115.55,0.55 142.45,1.92 26.62,1.37 40.07,6.59 40.07,15.37 0,9.33 -7.41,15.09 -22.51,17.29 -49.95,6.86 -93.32,20.59 -129.82,40.62 -36.78,20.04 -93.87,67.52 -171,141.63 -77.4,74.38 -143.82,146.56 -199.53,216.28 62.03,0 114.45,8.78 156.72,26.07 42.27,17.57 77.4,47.49 105.67,90.3 27.99,42.55 52.42,114.73 72.73,216.83 35.41,171 98.81,260.47 190.21,267.88 20.31,1.65 30.46,7.14 30.46,16.47 0,7.69 -4.94,11.53 -14.54,11.53l-73.83 -1.37c-109.24,0 -172.1,0.82 -188.02,3.02 -26.07,-34.86 -43.09,-69.17 -50.77,-102.93 -7.96,-33.76 -18.39,-93.04 -31.84,-177.58 -11.8,-74.11 -31.29,-142.45 -58.19,-205.03 -27.17,-62.85 -69.44,-94.14 -126.8,-94.14 -38.15,0 -77.4,12.35 -118.3,37.33 -40.62,24.97 -64.22,43.36 -70.81,55.44 -6.31,12.08 -9.61,83.16 -9.61,212.71 0,91.13 2.75,147.39 8.51,168.8 5.49,21.68 17.57,38.43 36.51,50.78 18.93,12.35 44.19,20.03 76.02,23.33 19.22,2.19 28.82,7.96 28.82,17.56 0,9.06 -6.58,13.73 -20.03,13.73l-9.61 -0.55c-15.1,-0.83 -69.71,-1.1 -163.86,-1.1 -113.63,0 -177.85,1.1 -192.67,3.29 -7.69,1.1 -13.18,1.65 -17.02,1.65 -12.35,0 -18.39,-4.94 -18.39,-14.82 0,-8.78 7.41,-14.27 22.51,-16.47 28.54,-3.84 49.67,-11.8 63.95,-23.6 14.27,-12.08 23.33,-26.08 27.44,-42 3.85,-15.64 9.34,-68.61 15.92,-158.64 6.86,-90.3 10.16,-165.23 10.16,-225.34 0,-79.32 -0.82,-146.56 -2.47,-201.73 -1.65,-55.17 -4.67,-115.55 -9.61,-180.6 -4.66,-65.05 -10.15,-104.3 -15.92,-117.47 -6.04,-13.18 -14.27,-23.33 -24.97,-30.47 -10.71,-7.14 -35.68,-13.18 -75.21,-18.12 -13.45,-1.64 -20.03,-6.31 -20.03,-14.54 0,-11.8 12.35,-17.57 36.77,-17.57l65.05 -0.82 284.9 -3.3c14.55,0 21.68,4.4 21.68,13.45 0,5.22 -2.47,9.06 -7.13,11.26 -4.94,2.47 -19.49,5.21 -44.19,8.23 -24.98,3.29 -40.9,6.31 -47.21,9.33 -6.31,3.02 -12.9,9.88 -19.21,20.86 -6.59,10.98 -9.61,29.1 -9.61,54.35 0,60.93 3.02,196.79 8.78,408.13z"/>
  </g>
 </g>
</svg>
