<svg width="" height="" xmlns="http://www.w3.org/2000/svg">
 <defs>
  <style type="text/css">
   <![CDATA[
    .str0 {stroke:#65AD46;stroke-width:10;stroke-miterlimit:22.9256}
    .fil1 {fill:#65AD46}
    .fil0 {fill:#F39523}
    .fil2 {fill:#65AD46;fill-rule:nonzero}
   ]]>
  </style>
 </defs>
 <g>
  <title>background</title>
  <rect fill="none" id="canvas_background" height="7537" width="12150" y="-1" x="-1"/>
 </g>
 <g>
  <title>Layer 1</title>
  <g id="Layer_x0020_1">
   <metadata transform="translate(-50.00704574584961,-200.02818298339844) translate(90.01268005371094,-6960.98046875) translate(-10.001408576965332,-10.001408576965332) translate(-1570.2210693359375,1810.2548828125) translate(-2360.332275390625,-870.1224975585938) " id="CorelCorpID_0Corel-Layer"/>
   <g id="_2749866085664">
    <path id="svg_1" d="m4794.26088,6650.31232c-218.79,-112.72 -332.64,-160.5 -407.88,-182.66c-52.25,-15.39 -120.73,20.33 -202.85,88.15c-133.34,110.16 -375.3,242.44 -565.68,303.32c-1578.44,504.62 -2956.34,-652.26 -2935.17,-2097.33c14.7,-1005.22 691.75,-1785.77 1485.54,-2048.32c471.13,-155.87 1038.9,-162.26 1505.86,23.03c723.81,287.19 490.07,492.23 843.77,318.16c101.97,-50.2 193.16,-77.04 282.55,-149.94c-73.34,-123.65 -411.36,-369.02 -562.28,-455.7c-785.64,-451.36 -1691.27,-471.32 -2482.76,-117.15c-2189.23,979.67 -2003.97,4116.55 46.58,4938.27c510.66,204.64 1138.86,309.24 1749.08,139.08c368.83,-102.88 1186.24,-477.93 1243.24,-758.91z" class="fil0"/>
    <path id="svg_2" d="m2891.96088,1717.20232c-739.24,62.63 -1267.49,58.46 -1831.67,-289.75c-345.4,-213.16 -898.87,-758.18 -980.54,-1259.22c653.75,-237.98 1312.85,-119.37 1825.08,226.79c389.96,263.54 981.2,990.38 987.13,1322.18z" class="fil1"/>
    <path id="svg_3" d="m4908.22088,769.16232c-156.63,680.55 -895.5,1083.35 -1743.84,960.91c61.05,-315.02 405.94,-679.79 597.96,-810.9c383.68,-261.93 644.44,-251.14 1145.88,-150.01z" class="fil1"/>
    <path id="svg_4" d="m4038.49088,3697.12232l423.53,0c101.24,0 190.67,19.3 268.36,57.91c77.7,38.65 138.1,93.02 181.17,163.18c43.07,70.16 64.6,151.84 64.6,245.07c0,93.23 -21.53,174.91 -64.6,245.07c-43.07,70.13 -103.47,124.53 -181.17,163.14c-77.69,38.65 -167.12,57.95 -268.36,57.95l-423.53,0l0,-932.32zm412.89,755.18c93.23,0 167.6,-25.96 223.06,-77.91c55.5,-51.96 83.26,-122.34 83.26,-211.11c0,-88.81 -27.76,-159.15 -83.26,-211.11c-55.46,-51.95 -129.83,-77.91 -223.06,-77.91l-197.14,0l0,578.04l197.14,0zm871.05,-444.84c24.86,-34.63 58.38,-60.84 100.54,-78.61c42.19,-17.73 90.78,-26.62 145.84,-26.62l0,191.8c-23.07,-1.79 -38.6,-2.67 -46.61,-2.67c-59.49,0 -106.1,16.64 -139.85,49.95c-33.75,33.27 -50.6,83.25 -50.6,149.83l0,338.3l-207.78,0l0,-716.57l198.46,0l0,94.59zm370.26,-94.59l207.78,0l0,716.57l-207.78,0l0,-716.57zm103.87,-99.89c-38.17,0 -69.25,-11.11 -93.24,-33.3c-23.94,-22.2 -35.94,-49.73 -35.94,-82.56c0,-32.87 12,-60.4 35.94,-82.59c23.99,-22.2 55.07,-33.31 93.24,-33.31c38.2,0 69.28,10.68 93.23,31.99c23.98,21.32 35.98,47.93 35.98,79.89c0,34.66 -12,63.29 -35.98,85.92c-23.95,22.63 -55.03,33.96 -93.23,33.96zm998.93,460.83c0,2.67 -1.31,21.31 -3.98,55.94l-542.1,0c9.76,44.42 32.87,79.48 69.25,105.22c36.41,25.78 81.71,38.65 135.86,38.65c37.29,0 70.38,-5.56 99.23,-16.68c28.85,-11.07 55.72,-28.62 80.58,-52.61l110.56,119.89c-67.49,77.25 -166.06,115.86 -295.71,115.86c-80.8,0 -152.28,-15.76 -214.43,-47.27c-62.16,-31.52 -110.09,-75.25 -143.84,-131.19c-33.74,-55.94 -50.6,-119.44 -50.6,-190.45c0,-70.16 16.64,-133.41 49.95,-189.82c33.3,-56.38 79.01,-100.33 137.18,-131.84c58.17,-31.52 123.21,-47.28 195.12,-47.28c70.13,0 133.64,15.1 190.45,45.26c56.86,30.2 101.46,73.49 133.86,129.87c32.43,56.38 48.62,121.86 48.62,196.45zm-371.61,-214.44c-47.05,0 -86.58,13.35 -118.53,39.96c-31.96,26.66 -51.48,63.07 -58.61,109.21l352.97,0c-7.1,-45.26 -26.66,-81.46 -58.61,-108.55c-31.96,-27.05 -71.04,-40.62 -117.22,-40.62zm1240.03,-418.19l0,988.26l-198.46,0l0,-82.59c-51.52,62.15 -126.1,93.23 -223.76,93.23c-67.49,0 -128.51,-15.06 -183.14,-45.26c-54.62,-30.2 -97.43,-73.27 -128.51,-129.21c-31.08,-55.94 -46.62,-120.76 -46.62,-194.44c0,-73.7 15.54,-138.53 46.62,-194.47c31.08,-55.94 73.89,-99.01 128.51,-129.21c54.63,-30.16 115.65,-45.26 183.14,-45.26c91.44,0 162.92,28.85 214.44,86.58l0,-347.63l207.78,0zm-386.24,828.45c52.35,0 95.86,-17.99 130.52,-53.96c34.63,-35.94 51.92,-84.13 51.92,-144.5c0,-60.4 -17.29,-108.55 -51.92,-144.52c-34.66,-35.98 -78.17,-53.93 -130.52,-53.93c-53.31,0 -97.26,17.95 -131.88,53.93c-34.62,35.97 -51.95,84.12 -51.95,144.52c0,60.37 17.33,108.56 51.95,144.5c34.62,35.97 78.57,53.96 131.88,53.96zm1185.36,-599.39l0,246.42l431.54,0l0,173.16l-431.54,0l0,339.62l-215.75,0l0,-932.32l704.58,0l0,173.12l-488.83,0zm805.82,137.22c24.86,-34.63 58.39,-60.84 100.54,-78.61c42.2,-17.73 90.79,-26.62 145.85,-26.62l0,191.8c-23.07,-1.79 -38.61,-2.67 -46.62,-2.67c-59.48,0 -106.1,16.64 -139.85,49.95c-33.74,33.27 -50.6,83.25 -50.6,149.83l0,338.3l-207.78,0l0,-716.57l198.46,0l0,94.59zm1097.47,-94.59l0,716.57l-197.1,0l0,-85.22c-27.53,31.07 -60.4,54.8 -98.57,71.22c-38.17,16.45 -79.45,24.64 -123.87,24.64c-94.11,0 -168.7,-27.05 -223.76,-81.24c-55.06,-54.15 -82.56,-134.51 -82.56,-241.05l0,-404.92l207.78,0l0,374.28c0,115.43 48.37,173.16 145.15,173.16c49.73,0 89.69,-16.24 119.89,-48.63c30.2,-32.43 45.26,-80.58 45.26,-144.53l0,-354.28l207.78,0zm193.16,0l207.78,0l0,716.57l-207.78,0l0,-716.57zm863.07,681.95c-20.44,15.1 -45.52,26.4 -75.24,33.96c-29.77,7.54 -61.06,11.3 -93.93,11.3c-85.23,0 -151.15,-21.75 -197.76,-65.26c-46.62,-43.51 -69.95,-107.42 -69.95,-191.77l0,-294.35l-110.56,0l0,-159.85l110.56,0l0,-174.47l207.78,0l0,174.47l178.46,0l0,159.85l-178.46,0l0,291.68c0,30.2 7.76,53.49 23.29,69.91c15.54,16.45 37.55,24.64 65.96,24.64c32.83,0 60.8,-8.88 83.91,-26.61l55.94,146.5zm358.3,45.26c-59.52,0 -117.65,-7.31 -174.51,-21.97c-56.81,-14.63 -102.11,-33.05 -135.82,-55.25l69.25,-149.17c31.95,20.4 70.6,37.04 115.86,49.94c45.3,12.87 89.69,19.31 133.19,19.31c87.9,0 131.88,-21.76 131.88,-65.26c0,-20.44 -11.99,-35.1 -35.98,-43.95c-23.98,-8.88 -60.83,-16.45 -110.56,-22.67c-58.57,-8.88 -106.98,-19.08 -145.15,-30.64c-38.2,-11.51 -71.26,-31.95 -99.23,-61.24c-27.97,-29.32 -41.97,-71.04 -41.97,-125.22c0,-45.26 13.09,-85.45 39.31,-120.51c26.17,-35.1 64.38,-62.41 114.54,-81.93c50.17,-19.53 109.43,-29.29 177.8,-29.29c50.6,0 101.02,5.56 151.18,16.64c50.17,11.11 91.66,26.43 124.53,45.95l-69.28,147.86c-63.03,-35.54 -131.84,-53.31 -206.43,-53.31c-44.38,0 -77.69,6.22 -99.88,18.65c-22.2,12.43 -33.31,28.44 -33.31,47.97c0,22.19 11.99,37.73 35.97,46.61c23.95,8.89 62.16,17.3 114.55,25.3c58.57,9.77 106.54,20.22 143.84,31.3c37.29,11.12 69.68,31.3 97.21,60.62c27.53,29.29 41.32,70.13 41.32,122.52c0,44.38 -13.35,83.91 -39.96,118.53c-26.66,34.63 -65.49,61.5 -116.56,80.58c-51.04,19.09 -111.66,28.63 -181.79,28.63z" class="fil2 str0"/>
    <path id="svg_5" d="m5954.65088,4973.12232l-306.09,707.1l-161.61,0l-305.07,-707.1l176.78,0l215.16,505.06l218.2,-505.06l162.63,0zm539.39,437.39c0,2.04 -0.98,16.16 -3.03,42.45l-411.1,0c7.38,33.67 24.9,60.25 52.5,79.77c27.64,19.53 61.97,29.33 103.03,29.33c28.3,0 53.38,-4.25 75.28,-12.66c21.87,-8.4 42.23,-21.71 61.1,-39.88l83.83,90.89c-51.18,58.61 -125.91,87.89 -224.23,87.89c-61.28,0 -115.5,-11.95 -162.63,-35.86c-47.16,-23.92 -83.5,-57.08 -109.1,-99.49c-25.59,-42.45 -38.38,-90.56 -38.38,-144.45c0,-53.2 12.61,-101.17 37.87,-143.95c25.27,-42.77 59.93,-76.08 104.06,-99.99c44.09,-23.91 93.41,-35.87 147.96,-35.87c53.2,0 101.35,11.44 144.46,34.33c43.1,22.93 76.92,55.76 101.53,98.5c24.57,42.78 36.85,92.43 36.85,148.99zm-281.81,-162.63c-35.69,0 -65.67,10.09 -89.91,30.31c-24.24,20.22 -39.05,47.82 -44.46,82.85l267.71,0c-5.38,-34.37 -20.22,-61.79 -44.46,-82.34c-24.24,-20.54 -53.86,-30.82 -88.88,-30.82zm947.49,-111.11l0,452.52c0,99.67 -25.92,173.74 -77.8,222.26c-51.85,48.48 -127.6,72.72 -227.27,72.72c-52.54,0 -102.37,-6.4 -149.5,-19.19c-47.13,-12.8 -86.18,-31.34 -117.18,-55.58l62.63,-113.12c22.89,18.87 51.84,33.86 86.87,44.94c35.03,11.11 70.05,16.67 105.08,16.67c54.51,0 94.77,-12.29 120.69,-36.86c25.92,-24.56 38.9,-61.78 38.9,-111.62l0,-23.21c-41.1,45.11 -98.31,67.67 -171.73,67.67c-49.83,0 -95.46,-10.97 -136.89,-32.83c-41.38,-21.9 -74.22,-52.69 -98.46,-92.43c-24.24,-39.74 -36.38,-85.52 -36.38,-137.4c0,-51.84 12.14,-97.62 36.38,-137.36c24.24,-39.74 57.08,-70.53 98.46,-92.43c41.43,-21.9 87.06,-32.83 136.89,-32.83c78.79,0 138.71,25.92 179.81,77.77l0,-69.69l149.5,0zm-298.01,387.88c41.75,0 75.94,-12.28 102.55,-36.85c26.58,-24.57 39.89,-56.75 39.89,-96.49c0,-39.7 -13.31,-71.88 -39.89,-96.45c-26.61,-24.57 -60.8,-36.89 -102.55,-36.89c-41.72,0 -76.09,12.32 -103.03,36.89c-26.91,24.57 -40.4,56.75 -40.4,96.45c0,39.74 13.49,71.92 40.4,96.49c26.94,24.57 61.31,36.85 103.03,36.85zm976.81,-114.14c0,2.04 -0.98,16.16 -3.03,42.45l-411.1,0c7.39,33.67 24.9,60.25 52.5,79.77c27.64,19.53 61.97,29.33 103.03,29.33c28.3,0 53.38,-4.25 75.28,-12.66c21.87,-8.4 42.23,-21.71 61.1,-39.88l83.83,90.89c-51.18,58.61 -125.91,87.89 -224.23,87.89c-61.28,0 -115.5,-11.95 -162.62,-35.86c-47.17,-23.92 -83.51,-57.08 -109.1,-99.49c-25.6,-42.45 -38.39,-90.56 -38.39,-144.45c0,-53.2 12.61,-101.17 37.87,-143.95c25.27,-42.77 59.93,-76.08 104.06,-99.99c44.09,-23.91 93.41,-35.87 147.96,-35.87c53.2,0 101.35,11.44 144.46,34.33c43.1,22.93 76.92,55.76 101.53,98.5c24.57,42.78 36.85,92.43 36.85,148.99zm-281.81,-162.63c-35.69,0 -65.67,10.09 -89.91,30.31c-24.24,20.22 -39.05,47.82 -44.46,82.85l267.71,0c-5.38,-34.37 -20.22,-61.79 -44.46,-82.34c-24.24,-20.54 -53.86,-30.82 -88.88,-30.82zm737.37,406.09c-15.46,11.44 -34.51,20.04 -57.07,25.74c-22.56,5.74 -46.29,8.59 -71.22,8.59c-64.64,0 -114.62,-16.49 -149.98,-49.5c-35.35,-32.98 -53.05,-81.46 -53.05,-145.44l0,-223.25l-83.84,0l0,-121.2l83.84,0l0,-132.35l157.58,0l0,132.35l135.35,0l0,121.2l-135.35,0l0,221.24c0,22.88 5.89,40.54 17.7,53.01c11.77,12.47 28.44,18.68 49.98,18.68c24.93,0 46.14,-6.72 63.65,-20.18l42.41,111.11zm308.07,-525.28c84.2,0 148.84,20.04 193.96,60.11c45.12,40.07 67.67,100.51 67.67,181.31l0,310.11l-147.49,0l0,-67.67c-29.61,50.49 -84.82,75.75 -165.66,75.75c-41.71,0 -77.91,-7.05 -108.58,-21.2c-30.64,-14.15 -54.04,-33.68 -70.2,-58.61c-16.16,-24.9 -24.24,-53.2 -24.24,-84.82c0,-50.53 19.05,-90.24 57.07,-119.2c38.06,-28.95 96.82,-43.43 176.26,-43.43l125.26,0c0,-34.37 -10.42,-60.8 -31.29,-79.3c-20.88,-18.54 -52.21,-27.79 -93.97,-27.79c-28.95,0 -57.4,4.53 -85.33,13.64c-27.97,9.1 -51.7,21.39 -71.22,36.85l-56.56,-110.08c29.61,-20.88 65.15,-37.04 106.57,-48.49c41.39,-11.44 83.99,-17.18 127.75,-17.18zm-12.1,453.55c26.94,0 50.85,-6.22 71.73,-18.69c20.88,-12.46 35.69,-30.82 44.42,-55.06l0,-55.53l-108.07,0c-64.64,0 -96.96,21.2 -96.96,63.61c0,20.22 7.89,36.2 23.72,48.01c15.84,11.77 37.55,17.66 65.16,17.66zm737.37,-453.55c50.49,0 96.45,11.63 137.88,34.84c41.42,23.26 73.92,55.91 97.47,97.99c23.58,42.08 35.35,91.07 35.35,146.98c0,55.9 -11.77,104.89 -35.35,146.97c-23.55,42.09 -56.05,74.74 -97.47,97.99c-41.43,23.22 -87.39,34.84 -137.88,34.84c-74.77,0 -131.66,-23.58 -170.7,-70.71l0,62.63l-150.53,0l0,-749.51l157.58,0l0,263.65c39.74,-43.77 94.29,-65.67 163.65,-65.67zm-27.27,430.33c40.4,0 73.56,-13.64 99.48,-40.91c25.92,-27.28 38.9,-63.8 38.9,-109.61c0,-45.78 -12.98,-82.34 -38.9,-109.62c-25.92,-27.27 -59.08,-40.91 -99.48,-40.91c-40.4,0 -73.56,13.64 -99.49,40.91c-25.96,27.28 -38.9,63.84 -38.9,109.62c0,45.81 12.94,82.33 38.9,109.61c25.93,27.27 59.09,40.91 99.49,40.91zm403.02,-628.31l157.58,0l0,749.51l-157.58,0l0,-749.51zm836.38,479.8c0,2.04 -0.99,16.16 -3.04,42.45l-411.09,0c7.38,33.67 24.89,60.25 52.5,79.77c27.64,19.53 61.97,29.33 103.03,29.33c28.3,0 53.38,-4.25 75.28,-12.66c21.86,-8.4 42.23,-21.71 61.09,-39.88l83.84,90.89c-51.19,58.61 -125.92,87.89 -224.23,87.89c-61.28,0 -115.5,-11.95 -162.63,-35.86c-47.16,-23.92 -83.51,-57.08 -109.1,-99.49c-25.59,-42.45 -38.39,-90.56 -38.39,-144.45c0,-53.2 12.62,-101.17 37.88,-143.95c25.26,-42.77 59.92,-76.08 104.05,-99.99c44.1,-23.91 93.42,-35.87 147.97,-35.87c53.2,0 101.35,11.44 144.45,34.33c43.11,22.93 76.93,55.76 101.54,98.5c24.56,42.78 36.85,92.43 36.85,148.99zm-281.82,-162.63c-35.68,0 -65.66,10.09 -89.9,30.31c-24.24,20.22 -39.05,47.82 -44.46,82.85l267.7,0c-5.37,-34.37 -20.22,-61.79 -44.46,-82.34c-24.24,-20.54 -53.85,-30.82 -88.88,-30.82zm569.71,440.42c-45.12,0 -89.25,-5.55 -132.32,-16.67c-43.11,-11.11 -77.47,-25.08 -103.03,-41.9l52.5,-113.16c24.24,15.5 53.56,28.12 87.9,37.88c34.33,9.76 68,14.66 101.01,14.66c66.66,0 100,-16.49 100,-49.5c0,-15.47 -9.1,-26.58 -27.27,-33.35c-18.18,-6.72 -46.14,-12.43 -83.84,-17.14c-44.46,-6.73 -81.17,-14.48 -110.12,-23.26c-28.96,-8.74 -54.04,-24.24 -75.25,-46.47c-21.2,-22.19 -31.81,-53.85 -31.81,-94.95c0,-34.33 9.91,-64.79 29.8,-91.4c19.85,-26.58 48.81,-47.31 86.87,-62.12c38.03,-14.81 83,-22.23 134.84,-22.23c38.39,0 76.6,4.2 114.66,12.61c38.06,8.45 69.54,20.04 94.44,34.88l-52.54,112.1c-47.79,-26.91 -100,-40.4 -156.56,-40.4c-33.67,0 -58.94,4.72 -75.75,14.15c-16.82,9.43 -25.27,21.54 -25.27,36.38c0,16.82 9.11,28.59 27.28,35.35c18.2,6.73 47.16,13.13 86.87,19.2c44.46,7.38 80.83,15.32 109.1,23.73c28.3,8.41 52.87,23.73 73.74,45.96c20.88,22.23 31.3,53.19 31.3,92.94c0,33.67 -10.09,63.61 -30.27,89.9c-20.22,26.25 -49.69,46.62 -88.41,61.09c-38.72,14.48 -84.68,21.72 -137.87,21.72z" class="fil2 str0"/>
    <path id="svg_6" d="m4967.60088,5999.41232l-128.48,-119.31c-101.97,79.53 -221.27,119.31 -357.9,119.31c-77.48,0 -147.35,-12.51 -209.54,-37.48c-62.19,-24.97 -110.89,-59.89 -146.06,-104.75c-35.17,-44.9 -52.76,-95.35 -52.76,-151.44c0,-66.28 18.61,-124.64 55.83,-175.13c37.22,-50.45 97.11,-98.64 179.7,-144.53c-38.72,-39.77 -66.76,-77.76 -84.13,-113.96c-17.33,-36.19 -25.99,-73.67 -25.99,-112.39c0,-52.03 13.78,-97.91 41.31,-137.65c27.53,-39.78 66.54,-70.64 117,-92.54c50.45,-21.94 108.84,-32.91 175.13,-32.91c92.79,0 167.23,22.2 223.32,66.55c56.05,44.35 84.09,104.27 84.09,179.73c0,55.06 -16.56,103.98 -49.69,146.8c-33.16,42.85 -86.43,84.13 -159.85,123.91l195.79,182c23.44,-48.96 41.28,-104.53 53.53,-166.72l191.18,59.67c-20.4,94.8 -53.02,175.89 -97.88,243.17l125.41,116.26l-130.01,151.41zm-435.89,-940.63c-35.69,0 -63.99,9.18 -84.9,27.54c-20.91,18.35 -31.33,41.79 -31.33,70.34c0,21.43 5.59,41.53 16.82,60.4c11.22,18.87 33.12,44.13 65.77,75.72c51.99,-27.53 88.19,-52.25 108.59,-74.18c20.36,-21.91 30.56,-45.63 30.56,-71.12c0,-26.5 -9.17,-47.93 -27.53,-64.24c-18.35,-16.3 -44.35,-24.46 -77.98,-24.46zm-33.64,754.01c74.4,0 141.2,-20.87 200.36,-62.7l-258.49,-241.63c-47.93,27.53 -82.08,54.55 -102.48,81.05c-20.41,26.51 -30.61,56.6 -30.61,90.24c0,39.78 17.37,71.88 52.03,96.34c34.66,24.49 81.06,36.7 139.19,36.7z" class="fil2 str0"/>
    <path id="svg_7" d="m10665.17088,3804.56232c172.48,-31.68 292.7,-65.47 399.71,-179.97c65.52,-70.09 157.85,-228.8 145.33,-348.14c-163.89,-13.63 -306.83,54.4 -402.13,165.2c-72.55,84.35 -162.19,286.87 -142.91,362.91z" class="fil1"/>
    <path id="svg_8" d="m10258.03088,3405.41232c-25.23,184.88 121.31,355.42 344.88,405.06c14.54,-84.5 -37.14,-208.27 -72.73,-259.19c-71.1,-101.74 -137.28,-123.71 -272.15,-145.87z" class="fil1"/>
   </g>
  </g>
 </g>
</svg>