<svg width="55" height="55" viewBox="0 0 55 55" fill="none" xmlns="http://www.w3.org/2000/svg">
<path d="M37.6265 24.7928H41.0251V39.4092C41.0251 40.3015 40.3015 41.0251 39.4092 41.0251H14.7803C13.888 41.0251 13.1645 40.3015 13.1645 39.4092V24.7928H16.563C16.4015 25.5348 16.314 26.3044 16.314 27.0947C16.314 33.0487 21.1406 37.8753 27.0947 37.8753C33.0487 37.8753 37.8753 33.0487 37.8753 27.0947C37.8753 26.3044 37.788 25.5346 37.6265 24.7928ZM27.0947 34.3564C31.105 34.3564 34.3562 31.1053 34.3562 27.0949C34.3562 23.0845 31.105 19.8333 27.0947 19.8333C23.0843 19.8333 19.8331 23.0845 19.8331 27.0949C19.8331 31.1053 23.0843 34.3564 27.0947 34.3564ZM35.7947 19.6371H38.5604C39.3712 19.6371 40.0287 18.9796 40.0287 18.1688V15.4034C40.0287 14.5925 39.3715 13.9353 38.5604 13.9353H35.7947C34.9839 13.9353 34.3267 14.5925 34.3267 15.4034V18.169C34.3267 18.9799 34.9839 19.6371 35.7947 19.6371ZM54.1895 0V54.1895H0V0H54.1895ZM44.3541 14.1888C44.3541 11.7846 42.4051 9.83561 40.001 9.83561H14.1888C11.7846 9.83561 9.83561 11.7846 9.83561 14.1888V40.001C9.83561 42.4051 11.7846 44.3541 14.1888 44.3541H40.001C42.4051 44.3541 44.3541 42.4051 44.3541 40.001V14.1888Z" fill="#2DA24A"/>
</svg>
