<svg width="55" height="55" viewBox="0 0 55 55" fill="none" xmlns="http://www.w3.org/2000/svg">
<path d="M36.2749 19.2181L24.2064 30.436C23.7823 30.8302 23.5083 31.3594 23.4308 31.9331L23.0202 34.9792C22.9655 35.3856 22.3936 35.4265 22.2815 35.0321L20.7004 29.4774C20.52 28.8434 20.7831 28.1665 21.3442 27.8209L35.9674 18.8139C36.2297 18.6525 36.5006 19.0082 36.2749 19.2181ZM54.1895 0V54.1895H0V0H54.1895ZM42.1304 13.0191L11.4233 24.8649C10.6663 25.157 10.6721 26.2302 11.4323 26.5141L18.9142 29.307L21.8105 38.6207C21.9961 39.2172 22.7259 39.4371 23.21 39.0423L27.3807 35.6422C27.8179 35.2858 28.4401 35.2684 28.8965 35.5998L36.4196 41.0617C36.9374 41.4377 37.671 41.1541 37.8012 40.5275L43.3113 14.0211C43.4535 13.3375 42.7821 12.7676 42.1304 13.0191Z" fill="#2DA24A"/>
</svg>
