<svg width="59" height="59" viewBox="0 0 59 59" fill="none" xmlns="http://www.w3.org/2000/svg">
<path d="M39.6377 20.7711L26.594 32.8955C26.1356 33.3215 25.8395 33.8935 25.7558 34.5135L25.3119 37.8058C25.2528 38.2451 24.6347 38.2893 24.5135 37.863L22.8047 31.8594C22.6097 31.1742 22.894 30.4426 23.5005 30.069L39.3053 20.3343C39.5889 20.1598 39.8817 20.5442 39.6377 20.7711ZM59 0V58.5685H0.431519V0H59ZM45.9664 14.0711L12.7779 26.8742C11.9598 27.1899 11.966 28.3498 12.7876 28.6566L20.8741 31.6752L24.0045 41.7416C24.2051 42.3862 24.9938 42.624 25.5171 42.1972L30.0248 38.5224C30.4974 38.1372 31.1698 38.1184 31.6631 38.4765L39.7941 44.3798C40.3538 44.7862 41.1466 44.4797 41.2873 43.8025L47.2427 15.1541C47.3965 14.4153 46.6707 13.7994 45.9664 14.0711Z" fill="white"/>
</svg>
