<svg width="19" height="32" viewBox="0 0 19 32" fill="none" xmlns="http://www.w3.org/2000/svg">
<path d="M17.412 31.1013L18.473 30.0793C18.8044 29.7577 18.9869 29.3298 18.9869 28.8724C18.9869 28.4153 18.8044 27.9869 18.473 27.6652L6.45268 16.007L18.4864 4.33531C18.8177 4.01418 19 3.58575 19 3.12865C19 2.67156 18.8177 2.24287 18.4864 1.92148L17.4319 0.899228C16.7462 0.233623 15.6292 0.233623 14.9434 0.899228L0.564378 14.7958C0.233283 15.1169 -6.36539e-07 15.5448 -6.55921e-07 16.006L-6.56145e-07 16.0113C-6.75368e-07 16.4687 0.233545 16.8966 0.564378 17.2177L14.9045 31.1013C15.2356 31.423 15.6901 31.5995 16.1614 31.6C16.6329 31.6 17.0812 31.423 17.412 31.1013Z" fill="#FFFCFC"/>
</svg>
