<svg width="28" height="28" viewBox="0 0 28 28" fill="none" xmlns="http://www.w3.org/2000/svg">
<path d="M23.9056 4.09447C18.4463 -1.36482 9.56051 -1.36482 4.10122 4.09447C1.45673 6.74 0 10.2566 0 13.9966C0 17.7366 1.45673 21.2532 4.10122 23.8977C6.83142 26.6279 10.4174 27.9924 14.0034 27.9924C17.5893 27.9924 21.1754 26.6279 23.9055 23.8977C29.3648 18.4384 29.3648 9.5548 23.9056 4.09447ZM22.3718 22.3639C17.7575 26.9783 10.2493 26.9783 5.63495 22.3639C3.4005 20.1295 2.16937 17.1574 2.16937 13.9966C2.16937 10.8358 3.4005 7.86373 5.63495 5.6282C10.2493 1.01389 17.7575 1.01498 22.3718 5.6282C26.985 10.2425 26.985 17.7507 22.3718 22.3639Z" fill="#585858"/>
</svg>
