<svg width="59" height="59" viewBox="0 0 59 59" fill="none" xmlns="http://www.w3.org/2000/svg">
<path d="M40.6671 26.7962H44.3402V42.5938C44.3402 43.5582 43.5582 44.3402 42.5938 44.3402H15.9747C15.0102 44.3402 14.2283 43.5582 14.2283 42.5938V26.7962H17.9014C17.7269 27.5983 17.6323 28.43 17.6323 29.2841C17.6323 35.7193 22.8489 40.9359 29.2841 40.9359C35.7193 40.9359 40.9359 35.7193 40.9359 29.2841C40.9359 28.43 40.8416 27.598 40.6671 26.7962ZM29.2841 37.1327C33.6186 37.1327 37.1324 33.6188 37.1324 29.2844C37.1324 24.9499 33.6186 21.436 29.2841 21.436C24.9497 21.436 21.4358 24.9499 21.4358 29.2844C21.4358 33.6188 24.9497 37.1327 29.2841 37.1327ZM38.6872 21.2239H41.6764C42.5528 21.2239 43.2633 20.5133 43.2633 19.637V16.6481C43.2633 15.7717 42.553 15.0614 41.6764 15.0614H38.6872C37.8109 15.0614 37.1006 15.7717 37.1006 16.6481V19.6372C37.1006 20.5136 37.8109 21.2239 38.6872 21.2239ZM58.5685 0V58.5685H0V0H58.5685ZM47.9383 15.3353C47.9383 12.7369 45.8318 10.6304 43.2334 10.6304H15.3353C12.7369 10.6304 10.6304 12.7369 10.6304 15.3353V43.2334C10.6304 45.8318 12.7369 47.9383 15.3353 47.9383H43.2334C45.8318 47.9383 47.9383 45.8318 47.9383 43.2334V15.3353Z" fill="white"/>
</svg>
