<svg width="19" height="32" viewBox="0 0 19 32" fill="none" xmlns="http://www.w3.org/2000/svg">
<path d="M1.588 0.898674L0.526979 1.92067C0.195623 2.24231 0.0130769 2.67024 0.0130769 3.12759C0.0130769 3.58468 0.195623 4.01312 0.526979 4.33476L12.5473 15.993L0.513641 27.6647C0.182285 27.9858 2.3702e-08 28.4143 2.03012e-08 28.8713C1.69004e-08 29.3284 0.182285 29.7571 0.513641 30.0785L1.56812 31.1008C2.25385 31.7664 3.37083 31.7664 4.05656 31.1008L18.4356 17.2042C18.7667 16.8831 19 16.4552 19 15.994L19 15.9887C19 15.5313 18.7665 15.1034 18.4356 14.7823L4.09553 0.898674C3.76443 0.577032 3.3099 0.400484 2.83862 0.399977C2.36709 0.399977 1.91883 0.577032 1.588 0.898674Z" fill="#FFFCFC"/>
</svg>
